<mxfile host="app.diagrams.net" modified="2024-02-14T05:35:37.338Z" agent="Mozilla/5.0 (Windows NT 10.0; Win64; x64; rv:122.0) Gecko/20100101 Firefox/122.0" version="23.1.4" etag="6q3tG_a2QR9QVFDgr87h" type="github">
  <diagram name="Page-1" id="h7a77n4fhUSPExTUgVPg">
    <mxGraphModel>
      <root>
        <mxCell id="0" />
        <mxCell id="1" parent="0" />
      </root>
    </mxGraphModel>
  </diagram>
</mxfile>
